:SAMPLES-PER-SECOND 30
:FULLY-SPECIFIED
:DEGREES
196
root  -41.0918 34.7148 22.4716 -166.741 72.8244 -172.765
RightUpLeg  -3.96213 -7.77976 -3.0661
RightLeg  5.92868 -1.63037 -0.0627332
RightFoot  6.57872 0.0282624 -0.0514176
RightToes  -32.0157 -0.15624 -0.26214
Spine  -3.23104 -0.464631 0.794037
Spine1  -6.20306 -0.563529 2.08136
HEad  -60.7445 6.66078 -7.40577
LeftShoulder1  -1.94126e-019 -3.10601e-018 -2.51263e-017
LeftArm  -41.1026 -4.89878 -29.5647
LeftForeArm  55.2918 -75.6725 -41.1354
LeftHand  -0.871166 -0.110413 18.4187
RightShoulder  -4.96962e-017 0 -2.36833e-017
RightArm  -25.934 -27.389 71.5921
RightForeArm  45.5792 37.6356 5.91337
RightHand  -0.49034 -1.76221 -15.5413
LeftUpLeg  -0.702103 10.2016 6.94338
LeftLeg  10.6586 21.6461 2.58319
LeftFoot  4.10893 -0.0612183 1.7956
LeftToes  -26.4303 2.32378e-006 -5.43956e-008
197
root  -40.9984 34.7263 22.5225 -166.422 72.749 -172.637
RightUpLeg  -4.09384 -7.80296 -2.8748
RightLeg  6.04275 -1.72458 -0.0698478
RightFoot  6.5249 0.0290895 -0.050766
RightToes  -31.8009 -0.156116 -0.262187
Spine  -3.19475 -0.513105 0.73447
Spine1  -6.15023 -0.677975 1.97114
HEad  -60.5744 7.09695 -6.69096
LeftShoulder1  -1.94126e-019 -3.10601e-018 -2.51263e-017
LeftArm  -41.6856 -4.35702 -28.7767
LeftForeArm  59.2024 -76.8317 -46.2296
LeftHand  -0.866293 -0.188214 18.0697
RightShoulder  -4.96962e-017 0 -2.36833e-017
RightArm  -26.0948 -28.3392 71.5842
RightForeArm  46.3108 35.1647 5.23957
RightHand  -0.516466 -1.49679 -15.2858
LeftUpLeg  -0.735422 9.96244 7.08986
LeftLeg  10.5027 21.7568 2.53722
LeftFoot  4.5173 -0.0739661 1.96732
LeftToes  -27.1299 2.32378e-006 -5.43956e-008
198
root  -40.9337 34.7425 22.57 -166.16 72.4076 -172.657
RightUpLeg  -4.34996 -8.24304 -2.69073
RightLeg  6.23056 -1.69144 -0.0740296
RightFoot  6.50682 0.0301359 -0.0550264
RightToes  -31.7055 -0.15584 -0.262286
Spine  -3.1728 -0.559728 0.670875
Spine1  -6.13086 -0.795094 1.85977
HEad  -60.5864 7.17095 -6.3334
LeftShoulder1  -1.94126e-019 -3.10601e-018 -2.51263e-017
LeftArm  -42.9739 -3.95637 -27.7148
LeftForeArm  65.9027 -78.2828 -55.5563
LeftHand  -0.821132 0.103982 18.0605
RightShoulder  -4.96962e-017 0 -2.36833e-017
RightArm  -26.6258 -29.0971 71.4466
RightForeArm  47.5618 32.3508 4.50159
RightHand  -0.5463 -1.31512 -15.4698
LeftUpLeg  -1.01854 9.99319 7.25221
LeftLeg  10.4626 21.4256 2.48565
LeftFoot  4.82019 -0.0817483 2.05504
LeftToes  -27.3531 2.32378e-006 -5.43956e-008
199
root  -40.8882 34.7532 22.6057 -166.128 71.9327 -172.942
RightUpLeg  -4.63748 -8.77034 -2.57475
RightLeg  6.43603 -1.74545 -0.0826881
RightFoot  6.42262 0.0308809 -0.0578975
RightToes  -31.6703 -0.15559 -0.262416
Spine  -3.12643 -0.553114 0.609611
Spine1  -6.06134 -0.808983 1.75087
HEad  -61.1797 6.8695 -6.32331
LeftShoulder1  -1.94126e-019 -3.10601e-018 -2.51263e-017
LeftArm  -44.5809 -3.73877 -26.7303
LeftForeArm  75.2242 -79.3416 -65.8833
LeftHand  -0.817203 0.294547 18.6277
RightShoulder  -4.96962e-017 0 -2.36833e-017
RightArm  -27.7601 -29.7625 71.1944
RightForeArm  47.8425 29.8338 3.92031
RightHand  -0.5392 -1.3754 -15.4913
LeftUpLeg  -1.36094 10.2311 7.3489
LeftLeg  10.3389 20.7898 2.37082
LeftFoot  5.12175 -0.0874862 2.10649
LeftToes  -27.7776 2.32378e-006 -5.43956e-008
200
root  -40.8579 34.7607 22.6313 -166.205 71.3212 -173.339
RightUpLeg  -4.93813 -9.34621 -2.49302
RightLeg  6.69388 -1.87143 -0.0971607
RightFoot  6.22889 0.031661 -0.0653308
RightToes  -31.1589 -0.155081 -0.262556
Spine  -3.15859 -0.542733 0.570848
Spine1  -6.1444 -0.810859 1.68471
HEad  -61.6522 6.323 -6.71938
LeftShoulder1  -1.94126e-019 -3.10601e-018 -2.51263e-017
LeftArm  -45.9363 -3.53822 -26.0418
LeftForeArm  76.219 -79.4071 -66.297
LeftHand  -0.830171 0.656502 20.3238
RightShoulder  -4.96962e-017 0 -2.36833e-017
RightArm  -28.9441 -30.58 70.844
RightForeArm  47.3683 27.7374 3.48913
RightHand  -0.506942 -1.64117 -15.565
LeftUpLeg  -1.78081 10.1867 7.36994
LeftLeg  10.2788 20.331 2.29966
LeftFoot  5.33091 -0.0918642 2.13465
LeftToes  -27.9948 2.32378e-006 -5.43956e-008
201
root  -40.8224 34.7753 22.6336 -166.587 70.6464 -173.955
RightUpLeg  -5.0853 -9.78133 -2.52368
RightLeg  6.89764 -2.19332 -0.121858
RightFoot  6.15643 0.0338273 -0.0977741
RightToes  -31.1481 -0.154531 -0.262684
Spine  -3.04258 -0.497204 0.64811
Spine1  -5.91848 -0.733006 1.83194
HEad  -62.5487 5.69447 -7.76336
LeftShoulder1  -1.94126e-019 -3.10601e-018 -2.51263e-017
LeftArm  -47.8951 -3.47891 -26.0628
LeftForeArm  60.6131 -77.2149 -48.2366
LeftHand  -0.813654 1.16142 22.2397
RightShoulder  -4.96962e-017 0 -2.36833e-017
RightArm  -30.4379 -30.813 70.3134
RightForeArm  46.9687 26.1573 3.17821
RightHand  -0.494451 -1.78027 -15.7493
LeftUpLeg  -2.05297 9.86287 7.30587
LeftLeg  10.1313 19.9458 2.20699
LeftFoot  5.66032 -0.101312 2.21072
LeftToes  -28.2579 2.32378e-006 -5.43956e-008
202
root  -40.789 34.7939 22.6152 -167.21 69.9958 -174.752
RightUpLeg  -5.18169 -9.95704 -2.66384
RightLeg  7.16247 -2.7665 -0.166762
RightFoot  6.08827 0.0374366 -0.157183
RightToes  -31.2053 -0.153942 -0.262779
Spine  -3.05432 -0.580124 0.761121
Spine1  -5.94973 -0.909879 2.05061
HEad  -63.3656 5.71238 -8.9998
LeftShoulder1  -1.94126e-019 -3.10601e-018 -2.51263e-017
LeftArm  -50.2665 -3.01787 -26.2606
LeftForeArm  42.4049 -70.6569 -28.6165
LeftHand  -0.775722 1.32788 22.0663
RightShoulder  -4.96962e-017 0 -2.36833e-017
RightArm  -31.3127 -30.9595 69.7788
RightForeArm  46.6953 25.0539 2.96423
RightHand  -0.469091 -2.00955 -15.9233
LeftUpLeg  -2.2857 9.36975 7.14133
LeftLeg  10.0985 19.6789 2.1675
LeftFoot  6.02871 -0.113042 2.308
LeftToes  -28.662 2.32378e-006 -5.43956e-008
203
root  -40.753 34.8157 22.5831 -168.003 69.5598 -175.679
RightUpLeg  -5.28334 -9.9021 -2.92277
RightLeg  7.50231 -3.32889 -0.220629
RightFoot  5.99632 0.0400121 -0.214016
RightToes  -31.1913 -0.153312 -0.262819
Spine  -3.05889 -0.705853 0.922782
Spine1  -5.97328 -1.17767 2.36932
HEad  -63.834 6.18234 -10.1263
LeftShoulder1  -1.94126e-019 -3.10601e-018 -2.51263e-017
LeftArm  -52.3498 -1.45862 -26.8225
LeftForeArm  31.2117 -61.2752 -17.9023
LeftHand  -0.683189 1.76586 21.7612
RightShoulder  -4.96962e-017 0 -2.36833e-017
RightArm  -31.953 -30.9035 69.3041
RightForeArm  46.226 24.9617 2.96535
RightHand  -0.452227 -2.12415 -15.8707
LeftUpLeg  -2.40226 9.14312 6.8827
LeftLeg  10.0441 19.3604 2.11557
LeftFoot  6.44439 -0.126627 2.41054
LeftToes  -29.0463 2.32378e-006 -5.43956e-008
204
root  -40.7167 34.8364 22.5372 -168.689 69.4955 -176.439
RightUpLeg  -5.48428 -9.77636 -3.20818
RightLeg  8.0203 -3.61436 -0.272424
RightFoot  5.84064 0.0399118 -0.236915
RightToes  -30.9023 -0.152643 -0.262785
Spine  -3.03008 -0.82855 1.07971
Spine1  -5.94613 -1.45285 2.69342
HEad  -64.187 6.82916 -10.9424
LeftShoulder1  -1.94126e-019 -3.10601e-018 -2.51263e-017
LeftArm  -52.7323 2.89717 -28.0398
LeftForeArm  23.6146 -54.9771 -14.2208
LeftHand  -0.376383 3.32738 20.8869
RightShoulder  -4.96962e-017 0 -2.36833e-017
RightArm  -31.9042 -30.844 68.9789
RightForeArm  44.8 26.156 3.27234
RightHand  -0.435619 -1.9359 -14.4646
LeftUpLeg  -2.39821 9.19642 6.61641
LeftLeg  10.0605 19.1486 2.09872
LeftFoot  6.75784 -0.137321 2.48709
LeftToes  -29.258 2.32378e-006 -5.43956e-008
205
root  -40.6827 34.8528 22.4778 -169.179 69.7776 -176.951
RightUpLeg  -5.81141 -9.40587 -3.49445
RightLeg  8.73702 -3.72603 -0.327769
RightFoot  5.81541 0.0388127 -0.248442
RightToes  -31.3948 -0.151933 -0.262653
Spine  -2.98083 -0.89918 1.222
Spine1  -5.88761 -1.62866 3.00008
HEad  -64.4021 7.73589 -11.2131
LeftShoulder1  -1.94126e-019 -3.10601e-018 -2.51263e-017
LeftArm  -51.9036 10.2518 -30.9917
LeftForeArm  17.8397 -54.1706 -14.2639
LeftHand  -0.246146 4.01225 20.2137
RightShoulder  -4.96962e-017 0 -2.36833e-017
RightArm  -31.3721 -30.6913 68.8028
RightForeArm  43.5173 27.8407 3.68282
RightHand  -0.418382 -1.61007 -12.7185
LeftUpLeg  -2.3808 9.50603 6.38553
LeftLeg  10.3069 18.9775 2.1617
LeftFoot  7.0192 -0.146588 2.55135
LeftToes  -29.917 2.32378e-006 -5.43956e-008
